<svg width="158" height="44" viewBox="0 0 158 44" fill="none" xmlns="http://www.w3.org/2000/svg">
<path d="M33.024 26V0.799979H38.568V20.96H51.132V26H33.024ZM75.6877 22.652C73.1437 25.172 69.9517 26.432 66.1117 26.432C62.2717 26.432 59.0797 25.172 56.5357 22.652C54.0157 20.132 52.7557 17.048 52.7557 13.4C52.7557 9.77598 54.0277 6.70398 56.5717 4.18398C59.1397 1.63998 62.3437 0.367981 66.1837 0.367981C70.0237 0.367981 73.2037 1.62798 75.7237 4.14798C78.2677 6.66798 79.5397 9.75198 79.5397 13.4C79.5397 17.024 78.2557 20.108 75.6877 22.652ZM60.7117 19.016C62.1517 20.552 63.9757 21.32 66.1837 21.32C68.3917 21.32 70.2038 20.564 71.6198 19.052C73.0358 17.516 73.7437 15.632 73.7437 13.4C73.7437 11.192 73.0237 9.31998 71.5837 7.78398C70.1437 6.24798 68.3197 5.47998 66.1117 5.47998C63.9037 5.47998 62.0917 6.24798 60.6757 7.78398C59.2597 9.29598 58.5517 11.168 58.5517 13.4C58.5517 15.608 59.2717 17.48 60.7117 19.016ZM96.2656 26.432C92.5696 26.432 89.4856 25.184 87.0136 22.688C84.5656 20.168 83.3416 17.072 83.3416 13.4C83.3416 9.75198 84.5776 6.66798 87.0496 4.14798C89.5216 1.62798 92.6656 0.367981 96.4816 0.367981C98.6656 0.367981 100.502 0.72798 101.99 1.44798C103.478 2.14398 104.894 3.15198 106.238 4.47198L102.926 8.28798C101.846 7.30398 100.826 6.59598 99.8656 6.16398C98.9296 5.70798 97.7896 5.47998 96.4456 5.47998C94.3336 5.47998 92.5816 6.24798 91.1896 7.78398C89.8216 9.29598 89.1376 11.168 89.1376 13.4C89.1376 15.608 89.8216 17.48 91.1896 19.016C92.5816 20.552 94.3336 21.32 96.4456 21.32C97.7896 21.32 98.9536 21.08 99.9376 20.6C100.922 20.12 101.966 19.376 103.07 18.368L106.598 22.148C105.23 23.612 103.742 24.692 102.134 25.388C100.55 26.084 98.5936 26.432 96.2656 26.432ZM108.876 26L119.676 0.619979H124.788L135.588 26H129.792L127.488 20.348H116.832L114.528 26H108.876ZM118.812 15.452H125.508L122.16 7.27998L118.812 15.452ZM139.477 26V0.799979H145.021V20.96H157.585V26H139.477Z" fill="black"/>
<path d="M3.61093 43.8936L0 33.1823H1.96825L4.43967 41.0677L6.98508 33.1519H8.52417L11.0696 41.0677L13.541 33.1823H15.4501L11.8391 43.8936H10.2704L7.72503 36.2514L5.17962 43.8936H3.61093ZM17.3179 43.8177V33.1823H24.9985V34.8536H19.1381V37.6188H24.3326V39.2901H19.1381V42.1464H25.0725V43.8177H17.3179ZM27.232 43.8177V33.1823H31.8788C33.0726 33.1823 33.9753 33.4963 34.587 34.1243C35.0507 34.6004 35.2826 35.198 35.2826 35.9171C35.2826 36.9705 34.7893 37.7606 33.8027 38.2873C35.174 38.7634 35.8597 39.6344 35.8597 40.9006C35.8597 41.8324 35.5144 42.5516 34.8238 43.058C34.1332 43.5645 33.2008 43.8177 32.0268 43.8177H27.232ZM29.0226 37.6644H31.5088C32.1107 37.6644 32.5842 37.5428 32.9295 37.2997C33.2847 37.0465 33.4623 36.6768 33.4623 36.1906C33.4623 35.7652 33.3044 35.436 32.9887 35.203C32.673 34.9599 32.2241 34.8384 31.642 34.8384H29.0226V37.6644ZM29.0226 42.1616H32.0416C32.673 42.1616 33.1614 42.035 33.5067 41.7818C33.8619 41.5285 34.0394 41.1588 34.0394 40.6727C34.0394 39.7205 33.3291 39.2445 31.9084 39.2445H29.0226V42.1616ZM42.3488 43.8177V33.1823H46.2113C47.8294 33.1823 49.1514 33.6888 50.1775 34.7017C51.2035 35.7044 51.7165 36.9705 51.7165 38.5C51.7165 40.0193 51.1986 41.2855 50.1627 42.2983C49.1366 43.3112 47.8195 43.8177 46.2113 43.8177H42.3488ZM44.1691 42.116H46.2113C47.2867 42.116 48.1549 41.7818 48.816 41.1133C49.477 40.4346 49.8075 39.5635 49.8075 38.5C49.8075 37.4466 49.477 36.5806 48.816 35.9019C48.1549 35.2233 47.2867 34.884 46.2113 34.884H44.1691V42.116ZM53.9249 43.8177V33.1823H61.6056V34.8536H55.7452V37.6188H60.9396V39.2901H55.7452V42.1464H61.6796V43.8177H53.9249ZM67.2576 43.8936L62.9511 33.1823H64.9637L68.0863 41.3564L71.1941 33.1823H73.1623L68.8558 43.8936H67.2576ZM74.9382 43.8177V33.1823H82.6188V34.8536H76.7585V37.6188H81.9529V39.2901H76.7585V42.1464H82.6928V43.8177H74.9382ZM84.8523 43.8177V33.1823H86.6725V42.116H92.1185V43.8177H84.8523ZM102.257 42.3895C101.231 43.4632 99.934 44 98.3653 44C96.7965 44 95.504 43.4682 94.4878 42.4047C93.4716 41.3412 92.9636 40.0396 92.9636 38.5C92.9636 36.9807 93.4766 35.6842 94.5026 34.6105C95.5287 33.5368 96.8261 33 98.3949 33C99.9636 33 101.256 33.5318 102.272 34.5953C103.288 35.6588 103.797 36.9604 103.797 38.5C103.797 40.0193 103.284 41.3158 102.257 42.3895ZM95.8641 41.1892C96.535 41.9185 97.3786 42.2831 98.3949 42.2831C99.4111 42.2831 100.245 41.9185 100.896 41.1892C101.557 40.4599 101.887 39.5635 101.887 38.5C101.887 37.4466 101.552 36.5552 100.881 35.826C100.22 35.0866 99.3815 34.7169 98.3653 34.7169C97.349 34.7169 96.5104 35.0815 95.8493 35.8108C95.1982 36.5401 94.8726 37.4365 94.8726 38.5C94.8726 39.5534 95.2031 40.4498 95.8641 41.1892ZM105.996 43.8177V33.1823H110.08C111.284 33.1823 112.241 33.5064 112.951 34.1547C113.661 34.8029 114.017 35.674 114.017 36.768C114.017 37.9125 113.622 38.8039 112.833 39.442C112.053 40.0801 111.067 40.3992 109.873 40.3992H107.816V43.8177H105.996ZM107.816 38.7127H109.932C110.613 38.7127 111.156 38.5355 111.56 38.1809C111.965 37.8264 112.167 37.3605 112.167 36.7831C112.167 36.1754 111.965 35.7095 111.56 35.3854C111.165 35.0511 110.623 34.884 109.932 34.884H107.816V38.7127ZM115.881 43.8177V33.1823H117.82L120.972 38.2113L124.124 33.1823H126.063V43.8177H124.243V36.1906L120.972 41.2044H120.913L117.672 36.221V43.8177H115.881ZM128.729 43.8177V33.1823H136.409V34.8536H130.549V37.6188H135.743V39.2901H130.549V42.1464H136.483V43.8177H128.729ZM138.643 43.8177V33.1823H140.33L145.88 40.5359V33.1823H147.67V43.8177H146.146L140.434 36.2514V43.8177H138.643ZM152.88 43.8177V34.9144H149.594V33.1823H158V34.9144H154.715V43.8177H152.88Z" fill="black"/>
<path d="M14.328 25.6059L9.7624 16.6678L0.16255 13.7393L0 11.8987L22.8876 1L16.1687 25.4434L14.328 25.6059ZM14.753 20.6659L18.8122 5.8649L4.9516 12.4552L11.6203 14.45L14.753 20.6659Z" fill="black"/>
</svg>
