<svg width="36" height="36" viewBox="0 0 36 36" fill="none" xmlns="http://www.w3.org/2000/svg">
<path fill-rule="evenodd" clip-rule="evenodd" d="M8.61195 27.2178C8.02616 26.6321 8.02616 25.6823 8.61195 25.0965L25.7237 7.98477C26.3095 7.39898 27.2592 7.39898 27.845 7.98477C28.4308 8.57055 28.4308 9.5203 27.845 10.1061L10.7333 27.2178C10.1475 27.8036 9.19773 27.8036 8.61195 27.2178Z" fill="black"/>
<path fill-rule="evenodd" clip-rule="evenodd" d="M26.7528 24.3199C25.9243 24.3182 25.2541 23.6452 25.2559 22.8168L25.2813 10.5482L13.0138 10.5746C12.1854 10.5764 11.5123 9.90626 11.5106 9.07783C11.5088 8.24941 12.1789 7.57639 13.0073 7.57461L26.7811 7.54494C27.1801 7.54408 27.5629 7.70217 27.845 7.98424C28.1271 8.26631 28.2852 8.64912 28.2844 9.04805L28.2559 22.823C28.2541 23.6514 27.5812 24.3216 26.7528 24.3199Z" fill="black"/>
</svg>
